HIERARCHY
ROOT Root
{
  OFFSET 12.4022 13.1887 9.72672
  CHANNELS 6 Xposition Yposition Zposition Zrotation Xrotation Yrotation
  JOINT Spine
  {
    OFFSET 5.3114 0 0
    CHANNELS 3 Zrotation Xrotation Yrotation
    JOINT Spine1
    {
      OFFSET 2.79004 0 0
      CHANNELS 3 Zrotation Xrotation Yrotation
      JOINT Neck
      {
        OFFSET 1.43377 0 0
        CHANNELS 3 Zrotation Xrotation Yrotation
        JOINT Head
        {
          OFFSET 1.86043 0 0
          CHANNELS 3 Zrotation Xrotation Yrotation
          End Site
          {
            OFFSET 0 0 0
          }
        }
      }
      JOINT LeftArm
      {
        OFFSET 0.0387506 0 2.55754
        CHANNELS 3 Zrotation Xrotation Yrotation
        JOINT LeftForeArm
        {
          OFFSET 4.24845 0 0
          CHANNELS 3 Zrotation Xrotation Yrotation
          JOINT LeftHand
          {
            OFFSET 4.01008 0 0
            CHANNELS 3 Zrotation Xrotation Yrotation
            End Site
            {
              OFFSET 0 0 0
            }
          }
        }
      }
      JOINT RightArm
      {
        OFFSET 0.0387506 0 -2.55754
        CHANNELS 3 Zrotation Xrotation Yrotation
        JOINT RightForeArm
        {
          OFFSET -4.24845 0 0
          CHANNELS 3 Zrotation Xrotation Yrotation
          JOINT RightHand
          {
            OFFSET -4.01009 0 0
            CHANNELS 3 Zrotation Xrotation Yrotation
            End Site
            {
              OFFSET 0 0 0
            }
          }
        }
      }
    }
  }
  JOINT LeftUpLeg
  {
    OFFSET -1.23318 0 2.05692
    CHANNELS 3 Zrotation Xrotation Yrotation
    JOINT LeftLeg
    {
      OFFSET 5.46397 0 0
      CHANNELS 3 Zrotation Xrotation Yrotation
      JOINT LeftFoot
      {
        OFFSET 4.68898 0 0
        CHANNELS 3 Zrotation Xrotation Yrotation
        End Site
        {
          OFFSET 0 0 0
        }
      }
    }
  }
  JOINT RightUpLeg
  {
    OFFSET -1.24454 0 -2.05007
    CHANNELS 3 Zrotation Xrotation Yrotation
    JOINT RightLeg
    {
      OFFSET -5.46397 0 0
      CHANNELS 3 Zrotation Xrotation Yrotation
      JOINT RightFoot
      {
        OFFSET -4.68901 0 0
        CHANNELS 3 Zrotation Xrotation Yrotation
        End Site
        {
          OFFSET 0 0 0
        }
      }
    }
  }
}
MOTION
Frames:	13
Frame Time:	0.0416667
13.8132 10.1087 10.3896 -125.633 3.97099 -177.39 -6.25074 1.87083 -0.203175 -0.486198 0.550538 1.43314 -5.3799 -4.28039 -8.983 -25.9387 -9.17365 8.14966 -4.15283 -33.1127 -172.65 38.9162 2.38328 22.7376 -3.52233 -23.6126 173.718 176.427 -26.5552 -175.292 40.1581 2.71662 23.4248 1.46037 10.2841 174.328 -75.2417 -2.5217 -179.066 -79.6655 0.999314 0.324146 36.6262 -2.67588 -176.893 98.8506 -10.5023 169.734 -76.3384 0.836095 0.0474969 12.8228 16.5422 176.329 
13.8718 9.86288 10.3691 -125.063 3.75199 -177.218 -6.33694 1.33493 -0.460576 -0.684298 0.392411 1.42834 -5.22064 -4.2299 -9.00818 -25.0632 -8.92307 7.77635 -4.18552 -26.1932 -171.952 36.9539 1.88718 21.6429 -3.15376 -21.3782 173.859 177.113 -20.7397 -174.637 38.9015 2.37887 22.7297 1.38361 9.74875 174.337 -76.7096 -1.49458 -178.985 -84.4249 0.996645 0.446166 38.0658 -1.96675 -177.261 97.4118 -9.44194 170.263 -81.0208 0.78744 0.145524 12.8517 18.4456 175.855 
13.9545 9.70394 10.3501 -123.453 3.68178 -177.135 -6.38192 1.20218 -0.683499 -0.810303 0.353112 1.41189 -5.09265 -4.11386 -9.0903 -22.7178 -8.47941 7.59007 -3.94707 -15.0542 -168.847 35.2986 1.49955 20.7107 -3.01094 -20.4931 173.91 178.092 -10.9327 -171.24 37.5005 2.02113 21.9491 1.58091 11.1058 174.301 -76.3721 -0.605024 -178.702 -88.1673 1.01974 0.545869 38.4724 -0.368054 -178.252 97.7077 -8.5162 170.835 -84.7562 0.731923 0.224079 12.3006 20.0472 175.669 
14.0404 9.63871 10.3394 -121.43 3.82345 -177.24 -7.01464 1.16598 -0.823786 -1.11807 0.350928 1.29676 -4.19729 -4.00835 -8.56575 -20.2042 -8.01007 7.04361 -4.16963 0.595044 -162.756 34.8862 1.40735 20.4773 -3.17 -21.4782 173.853 177.629 2.20644 -164.748 35.4573 1.5353 20.8006 1.61976 11.3718 174.293 -75.0363 0.00690794 -177.98 -90.4559 1.03969 0.604439 37.814 0.505448 -178.824 99.5341 -8.05595 171.301 -86.4489 0.696256 0.25972 11.5751 21.5513 175.579 
14.1273 9.7585 10.3313 -119.377 4.06686 -177.276 -8.67907 1.29074 -1.30738 0.0323848 0.376643 1.47366 -3.52142 -3.64811 -7.21811 -18.751 -7.22264 5.93484 -8.26829 14.921 -152.83 35.0082 1.43415 20.5466 -3.23157 -21.856 173.831 171.992 17.7872 -155.091 34.4289 1.30665 20.2182 1.51467 10.6518 174.313 -71.1581 0.734319 -177.197 -88.3673 1.13067 0.551222 37.571 2.11476 -179.81 103.748 -7.86503 172.073 -84.2109 0.691042 0.212023 10.1334 22.3118 176.037 
14.227 10.203 10.3245 -116.738 4.08613 -177.428 -9.93019 1.48687 -1.56656 0.387835 0.434836 1.54369 -1.81943 -3.37317 -6.4446 -17.3637 -6.58349 5.84179 -13.626 23.6808 -140.246 35.7938 1.61178 20.9908 -3.35886 -22.6306 173.782 164.556 27.8845 -141.465 34.7561 1.37886 20.4037 0.996276 7.05285 174.393 -63.9418 1.717 -176.586 -80.7 1.20392 0.354428 34.6168 3.31733 179.593 111.175 -8.13427 173.75 -77.2485 0.741578 0.0642938 6.70538 20.9339 177.709 
14.3537 10.9801 10.3043 -113.824 3.84288 -177.547 -11.437 1.77461 -1.62508 0.412995 0.526148 1.79818 1.71121 -3.41126 -6.00281 -15.6416 -6.29568 5.75469 -16.4058 26.8487 -129.336 37.8708 2.11434 22.1573 -3.47158 -23.3093 173.738 158.402 31.6816 -126.549 35.2601 1.49054 20.6882 0.834493 5.91656 174.412 -54.8711 4.13303 -175.412 -68.5735 1.16777 0.0464063 24.2585 4.9696 179.568 122.02 -6.90925 177.396 -64.7115 0.77135 -0.191918 -1.00758 15.7124 -179.283 
14.4979 11.97 10.2814 -111.643 3.66032 -177.48 -13.4448 2.35807 -1.53172 0.700636 0.712703 1.88217 5.51373 -3.74953 -5.69514 -13.6463 -6.47171 5.76239 -18.2046 27.731 -121.036 39.8372 2.62892 23.2482 -3.26693 -22.072 173.817 152.844 32.9932 -113.68 36.4774 1.7725 21.3757 0.811686 5.75596 174.414 -46.9192 7.04995 -173.238 -54.7436 1.01596 -0.281033 4.23778 3.41187 -179.263 132.824 -4.97278 -177.998 -49.3971 0.744599 -0.468445 -13.3003 3.79296 -178.53 
14.6136 12.9112 10.2624 -110.286 3.99563 -177.234 -14.84 2.76009 -1.31333 1.01662 0.846588 1.75546 6.97732 -3.8921 -5.71324 -10.3476 -6.26015 6.19422 -20.8774 28.4516 -113.22 40.5061 2.81315 23.6157 -3.15863 -21.4083 173.857 146.875 31.2985 -102.578 36.6012 1.80241 21.4448 0.970788 6.87408 174.396 -40.5843 5.202 -171.512 -44.474 0.980252 -0.527137 -3.90387 -6.97641 179.769 139.844 -7.627 -174.49 -37.1489 0.713849 -0.685165 -20.0402 -7.23039 177.961 
14.6205 13.6901 10.2445 -109.615 4.26887 -177.46 -16.1762 2.47741 -0.783415 1.68463 0.797181 1.57408 7.96593 -3.89885 -5.5665 -8.15006 -5.96308 6.48908 -23.0799 28.6584 -105.103 40.2795 2.7506 23.4911 -3.0345 -20.6398 173.902 141.549 27.1004 -92.6529 35.512 1.54821 20.8311 1.2068 8.5226 174.365 -36.105 2.45632 -169.185 -40.23 0.892584 -0.658166 11.0491 -12.9693 -178.387 144.083 -15.4662 -172.934 -32.8527 0.676883 -0.811137 4.65934 -8.57708 -179.603 
14.5487 14.2511 10.2411 -108.856 4.1747 -178.145 -16.8137 2.02396 -0.299777 1.86681 0.696924 1.6548 9.48785 -3.92772 -5.09713 -6.73072 -5.8328 6.72581 -23.1804 28.2607 -98.4349 40.3527 2.77101 23.5316 -2.92173 -19.9349 173.941 139.355 23.2853 -84.2315 35.1401 1.46393 20.621 1.33559 9.41671 174.345 -32.7467 1.34744 -165.58 -38.7553 0.696093 -0.749964 22.5083 -20.1682 -174.52 148.603 -20.6234 -170.514 -30.0254 0.557307 -0.827488 28.9631 -2.20405 -179.733 
14.4511 14.5373 10.2401 -107.475 4.27463 -178.785 -16.2109 2.20269 0.11152 2.08689 0.758571 1.80968 10.4341 -4.20305 -5.30929 -6.25065 -6.1108 7.50137 -23.5998 26.973 -93.402 40.0899 2.69824 23.3868 -2.76877 -18.9683 173.992 137.164 19.8085 -76.2076 34.3339 1.28732 20.1637 1.68361 11.8079 174.28 -29.7831 0.234969 -161.49 -38.6362 0.623398 -0.810123 24.8916 -24.2246 -173.361 154.83 -24.7422 -167.472 -26.6636 0.335275 -0.804681 42.626 -1.60048 179.513 
14.3567 14.5844 10.2339 -106.284 4.61416 -179.106 -16.2367 2.59457 0.401966 2.23206 0.882354 1.85004 11.4251 -4.24902 -5.19372 -5.23448 -5.94877 7.58699 -25.4053 24.7337 -89.1665 38.9703 2.39876 22.7668 -2.39986 -16.591 174.104 134.904 15.3757 -69.8353 33.2235 1.05353 19.5319 2.17804 15.132 174.166 -26.9297 -1.42898 -157.993 -38.2183 0.729154 -0.834857 20.8343 -25.7876 -175.355 159.666 -23.6485 -164.043 -24.5585 0.144125 -0.791494 42.6059 -6.16415 -177.424 
